<svg width="29.000000" height="29.000000" viewBox="0 0 29 29" fill="none" xmlns="http://www.w3.org/2000/svg" xmlns:xlink="http://www.w3.org/1999/xlink">
	<desc>
			Created with Pixso.
	</desc>
	<defs/>
	<path id="Primary fill" d="M14.5 0C22.49 0 29 6.5 29 14.5C29 22.49 22.49 29 14.5 29C6.5 29 0 22.49 0 14.5C0 6.5 6.5 0 14.5 0ZM23.54 21.75C21.42 24.4 18.15 26.1 14.5 26.1C10.84 26.1 7.57 24.4 5.45 21.74C7.57 19.09 10.84 17.4 14.5 17.4C18.15 17.4 21.42 19.09 23.54 21.75ZM14.5 14.5C16.9 14.5 18.84 12.55 18.84 10.14C18.84 7.74 16.9 5.79 14.5 5.79C12.09 5.79 10.15 7.74 10.15 10.14C10.15 12.55 12.09 14.5 14.5 14.5Z" fill="#007BFF" fill-opacity="1.000000" fill-rule="evenodd"/>
</svg>
